{"title":"The Sorcerers Apprentice DVDRip XviD-DiAMOND","uid":5951211,"size":1484123237,"categoryP":"video","categoryS":"movies","magnet":"?xt=urn:btih:ae71555aed922de6bcbe8fafa5693b0e5c6b0d99&amp;dn=The+Sorcerers+Apprentice+DVDRip+XviD-DiAMOND&amp;tr=udp%3A%2F%2Ftracker.openbittorrent.com%3A80&amp;tr=udp%3A%2F%2Fopen.demonii.com%3A1337&amp;tr=udp%3A%2F%2Ftracker.coppersurfer.tk%3A6969&amp;tr=udp%3A%2F%2Fexodus.desync.com%3A6969","seeders":2,"leechers":0,"uploader":"IwannaFan2","files":9,"time":1289535704,"description":"Filename:\nThe Sorcerers Apprentice DVDRip XviD-DiAMOND\n &lt;a href=&quot;\nhttp://www.imdb.com/title/tt0963966/&quot; rel=&quot;nofollow&quot; target=&quot;_NEW&quot;&gt;\nhttp://www.imdb.com/title/tt0963966/&lt;/a&gt;\n\nVideo\nID                               : 0\nFormat                           : MPEG-4 Visual\nFormat profile                   : AdvancedSimple@L5\nFormat settings, BVOP            : Yes\nFormat settings, QPel            : No\nFormat settings, GMC             : No warppoints\nFormat settings, Matrix          : Default (MPEG)\nMuxing mode                      : Packed bitstream\nCodec ID                         : XVID\nCodec ID/Hint                    : XviD\nDuration                         : 1h 49mn\nBit rate                         : 1 401 Kbps\nWidth                            : 640 pixels\nHeight                           : 272 pixels\nDisplay aspect ratio             : 2.35:1\nFrame rate                       : 23.976 fps\nResolution                       : 24 bits\nColorimetry                      : 4:2:0\nScan type                        : Progressive\nBits/(Pixel*Frame)               : 0.336\nStream size                      : 1.07 GiB (78%)\nWriting library                  : XviD 1.2.1 (UTC 2008-12-04)\n\nAudio\nID                               : 1\nFormat                           : AC-3\nFormat/Info                      : Audio Coding 3\nCodec ID                         : 2000\nDuration                         : 1h 49mn\nBit rate mode                    : Constant\nBit rate                         : 384 Kbps\nChannel(s)                       : 6 channels\nChannel positions                : Front: L C R, Surround: L R, LFE\nSampling rate                    : 48.0 KHz\nStream size                      : 299 MiB (21%)\nAlignment                        : Split accross interleaves\nInterleave, duration             : 42 ms (1.00 video frame)\nInterleave, preload duration     : 500 ms","torrent":{"xt":"urn:btih:ae71555aed922de6bcbe8fafa5693b0e5c6b0d99","amp;dn":"The+Sorcerers+Apprentice+DVDRip+XviD-DiAMOND","amp;tr":["udp%3A%2F%2Ftracker.openbittorrent.com%3A80","udp%3A%2F%2Fopen.demonii.com%3A1337","udp%3A%2F%2Ftracker.coppersurfer.tk%3A6969","udp%3A%2F%2Fexodus.desync.com%3A6969"],"infoHash":"ae71555aed922de6bcbe8fafa5693b0e5c6b0d99","infoHashBuffer":{"type":"Buffer","data":[174,113,85,90,237,146,45,230,188,190,143,175,165,105,59,14,92,107,13,153]},"announce":[],"urlList":[]}}